<?xml version="1.0" encoding="utf-8"?>
<!-- Generator: Adobe Illustrator 19.2.1, SVG Export Plug-In . SVG Version: 6.00 Build 0)  -->
<svg version="1.1" id="Layer_1" xmlns="http://www.w3.org/2000/svg" xmlns:xlink="http://www.w3.org/1999/xlink" x="0px" y="0px"
	 viewBox="0 0 157.7 97" style="enable-background:new 0 0 157.7 97;" xml:space="preserve">
<style type="text/css">
	.st0{fill:#5C6F7C;}
	.st1{fill:#B30838;}
</style>
<g>
	<g>
		<path class="st0" d="M4.5,16.8c-0.6-0.2-1.2-0.6-1.6-1c-0.4-0.4-0.8-1-1-1.6c-0.2-0.6-0.3-1.3-0.3-2c0-0.8,0.1-1.6,0.4-2.3
			c0.3-0.7,0.7-1.3,1.1-1.7c0.5-0.5,1.1-0.9,1.7-1.1C5.5,6.8,6.2,6.7,7,6.7c0.7,0,1.3,0,1.8,0.1C9.3,6.9,9.9,6.9,10.5,7v8.4H13v1.7
			H6.7C5.9,17.2,5.1,17.1,4.5,16.8z M8.5,15.5v-7c-0.1,0-0.3-0.1-0.4-0.1c-0.2,0-0.3,0-0.5,0c-0.2,0-0.3,0-0.5,0c-0.1,0-0.3,0-0.4,0
			c-0.4,0-0.8,0.1-1.2,0.3C5.2,8.8,4.8,9,4.6,9.3C4.3,9.6,4.1,10,3.9,10.4c-0.2,0.4-0.2,0.9-0.2,1.4c0,1.2,0.3,2.1,0.8,2.7
			c0.6,0.6,1.4,0.9,2.5,0.9H8.5z M5.2,5.2c-0.4,0-0.7-0.1-1-0.4C4,4.5,3.9,4.2,3.9,3.8s0.1-0.7,0.4-1c0.3-0.3,0.6-0.4,1-0.4
			s0.7,0.1,1,0.4c0.2,0.3,0.4,0.6,0.4,1s-0.1,0.7-0.4,1C5.9,5,5.6,5.2,5.2,5.2z M8.6,5.2c-0.4,0-0.7-0.1-1-0.4
			c-0.3-0.3-0.4-0.6-0.4-1s0.1-0.7,0.4-1s0.6-0.4,1-0.4c0.4,0,0.7,0.1,0.9,0.4c0.2,0.3,0.4,0.6,0.4,1s-0.1,0.7-0.4,1
			C9.3,5.1,9,5.2,8.6,5.2z"/>
		<path class="st0" d="M19.4,17.4c-0.6,0-1.2-0.2-1.7-0.5c-0.5-0.3-0.9-0.8-1.2-1.5c-0.3,0.6-0.8,1.1-1.3,1.4
			c-0.5,0.3-1.1,0.4-1.6,0.4h-1v-1.7h0.8c0.8,0,1.4-0.3,1.9-0.9C15.7,14,16,13.1,16,12V7h2v5.8c0,1,0.2,1.7,0.5,2.2
			c0.4,0.4,0.9,0.6,1.5,0.6c0.7,0,1.3-0.3,1.6-0.9c0.4-0.6,0.6-1.7,0.6-3.2V7h2v6.7c0,0.5,0.2,1,0.5,1.3c0.4,0.3,0.8,0.5,1.4,0.5
			h2.1v-3.9c0-1.1,0-2-0.1-2.9c-0.1-0.9-0.2-1.6-0.3-2.4l2-0.4C29.9,6.6,30,7.4,30,8.3c0.1,0.9,0.1,1.9,0.1,2.8v4.3h2.5v1.7h-6.7
			c-0.8,0-1.5-0.1-2-0.4c-0.5-0.3-0.8-0.7-1.1-1.4c-0.3,0.6-0.7,1.1-1.2,1.5C21.1,17.2,20.4,17.4,19.4,17.4z"/>
		<path class="st0" d="M39.1,17.4c-0.6,0-1.2-0.2-1.7-0.5c-0.5-0.3-0.9-0.8-1.2-1.5c-0.3,0.6-0.8,1.1-1.3,1.4
			c-0.5,0.3-1.1,0.4-1.6,0.4h-1v-1.7H33c0.8,0,1.4-0.3,1.9-0.9c0.5-0.6,0.7-1.5,0.7-2.6V7h2v5.8c0,1,0.2,1.7,0.5,2.2
			c0.4,0.4,0.9,0.6,1.5,0.6c0.7,0,1.3-0.3,1.6-0.9c0.4-0.6,0.6-1.7,0.6-3.2V7h2v6.7c0,0.5,0.2,1,0.5,1.3c0.4,0.3,0.8,0.5,1.4,0.5
			h2.1v-3.9c0-1.1,0-2-0.1-2.9c-0.1-0.9-0.2-1.6-0.3-2.4l2-0.4c0.1,0.7,0.2,1.5,0.3,2.4c0.1,0.9,0.1,1.9,0.1,2.8v6.1h-4.2
			c-0.8,0-1.5-0.1-2-0.4c-0.5-0.3-0.8-0.7-1.1-1.4c-0.3,0.6-0.7,1.1-1.2,1.5C40.7,17.2,40,17.4,39.1,17.4z"/>
		<path class="st0" d="M55.1,22.7c-0.4,0-0.9,0-1.4-0.1c-0.5,0-1-0.1-1.3-0.2l-0.2-2.2c0.5,0.1,1,0.2,1.5,0.3c0.5,0.1,1,0.1,1.6,0.1
			c2.8,0,4.2-1.2,4.2-3.5h-1.8c-0.9,0-1.7-0.1-2.4-0.4c-0.6-0.3-1.2-0.7-1.6-1.1c-0.4-0.5-0.7-1-0.9-1.6c-0.2-0.6-0.3-1.2-0.3-1.8
			c0-0.7,0.1-1.4,0.4-2.1c0.2-0.7,0.6-1.2,1.1-1.8c0.5-0.5,1-0.9,1.7-1.2c0.7-0.3,1.4-0.4,2.3-0.4c0.7,0,1.3,0,1.8,0.1
			c0.5,0.1,1.1,0.1,1.7,0.2v8.4H64v1.7h-2.5c0,0.6-0.2,1.3-0.4,1.9c-0.2,0.6-0.6,1.2-1.1,1.8c-0.5,0.5-1.1,1-1.9,1.3
			C57.3,22.5,56.3,22.7,55.1,22.7z M59.5,15.5v-7c-0.1,0-0.3-0.1-0.4-0.1c-0.2,0-0.3,0-0.5,0c-0.2,0-0.3,0-0.5,0c-0.1,0-0.3,0-0.4,0
			c-0.3,0-0.7,0.1-1,0.2c-0.4,0.1-0.7,0.4-1,0.6c-0.3,0.3-0.5,0.6-0.7,1.1c-0.2,0.4-0.3,0.9-0.3,1.5c0,1.2,0.3,2.1,0.9,2.8
			c0.6,0.6,1.4,0.9,2.4,0.9H59.5z M59.6,1.8c-0.1,0-0.3,0-0.4,0c-0.1,0-0.2,0-0.4,0c-0.3,0-0.5,0.1-0.6,0.2
			c-0.2,0.1-0.2,0.3-0.2,0.5c0,0.2,0.1,0.4,0.3,0.6c0.2,0.2,0.5,0.3,0.9,0.3h0.9v1.3h-4.4V3.3c0.2,0,0.4,0,0.7,0
			c0.3,0,0.6,0,0.8,0.1C57.1,3.3,57,3.2,56.9,3c-0.1-0.2-0.1-0.4-0.1-0.7c0-0.5,0.2-0.9,0.6-1.2c0.4-0.3,0.9-0.5,1.5-0.5
			c0.1,0,0.3,0,0.5,0c0.2,0,0.4,0,0.5,0.1L59.6,1.8z"/>
		<path class="st0" d="M63.6,15.5h0.7c0.3,0,0.6,0,0.8-0.1c0.3-0.1,0.5-0.2,0.7-0.5c0.2-0.2,0.4-0.5,0.5-0.9
			c0.1-0.4,0.2-0.9,0.2-1.5c0-1,0.1-1.8,0.4-2.5c0.2-0.7,0.6-1.3,1-1.8c0.4-0.5,1-0.8,1.6-1.1c0.6-0.2,1.3-0.4,2-0.4
			c0.6,0,1.2,0.1,1.8,0.3c0.5,0.2,1,0.5,1.3,0.9c0.4,0.4,0.7,1,0.9,1.6c0.2,0.7,0.3,1.4,0.3,2.4v5.3h-4c-1.3,0-2.2-0.2-2.9-0.6
			c-0.7-0.4-1.2-0.9-1.6-1.5c-0.2,0.6-0.6,1.1-1.1,1.5c-0.5,0.4-1.2,0.6-2.2,0.6h-0.4V15.5z M73.8,15.5v-4c0-0.4-0.1-0.8-0.2-1.2
			c-0.1-0.4-0.3-0.7-0.5-1c-0.2-0.3-0.5-0.5-0.8-0.7c-0.3-0.2-0.7-0.2-1.1-0.2c-0.5,0-0.9,0.1-1.2,0.3c-0.3,0.2-0.6,0.4-0.8,0.7
			c-0.2,0.3-0.4,0.7-0.5,1.1c-0.1,0.4-0.1,0.9-0.1,1.4c0,1.3,0.3,2.2,0.9,2.8c0.6,0.6,1.5,0.9,2.7,0.9H73.8z"/>
		<path class="st0" d="M5.3,40c-0.7,0-1.3-0.1-1.8-0.4c-0.5-0.2-0.9-0.6-1.2-1c-0.3-0.4-0.5-0.9-0.7-1.5c-0.1-0.6-0.2-1.2-0.2-1.9
			c0-0.2,0-0.4,0-0.6c0-0.2,0.1-0.5,0.1-0.7c0-0.3,0.1-0.5,0.1-0.8c0.1-0.2,0.1-0.5,0.2-0.7l1.5-0.3c-0.2,0.6-0.3,1.1-0.4,1.6
			c-0.1,0.5-0.1,1-0.1,1.4c0,0.7,0.1,1.2,0.2,1.7c0.1,0.5,0.3,0.8,0.5,1.1c0.2,0.3,0.5,0.5,0.8,0.6c0.3,0.1,0.6,0.2,1,0.2
			c0.5,0,0.9-0.1,1.2-0.3c0.3-0.2,0.6-0.5,0.8-0.8c0.2-0.3,0.3-0.8,0.4-1.3c0.1-0.5,0.1-1,0.1-1.6v-5.8h1.4v5.7v0.2h1.8v1.2H9.2
			C9.1,37.4,8.7,38.4,8,39C7.4,39.7,6.5,40,5.3,40z M5.6,30.5c-0.3,0-0.5-0.1-0.6-0.3c-0.2-0.2-0.3-0.4-0.3-0.7
			c0-0.2,0.1-0.5,0.3-0.6c0.2-0.2,0.4-0.3,0.6-0.3c0.3,0,0.5,0.1,0.6,0.3c0.2,0.2,0.2,0.4,0.2,0.6c0,0.3-0.1,0.5-0.2,0.7
			C6.1,30.4,5.9,30.5,5.6,30.5z"/>
		<path class="st0" d="M15.6,36.3c-0.4,0-0.8-0.1-1.2-0.4c-0.4-0.2-0.7-0.6-0.8-1.1c-0.2,0.4-0.6,0.8-0.9,1
			c-0.4,0.2-0.8,0.3-1.2,0.3h-0.7v-1.2h0.6c0.6,0,1-0.2,1.3-0.6c0.3-0.4,0.5-1,0.5-1.8v-3.5h1.4V33c0,0.7,0.1,1.2,0.4,1.5
			c0.3,0.3,0.6,0.4,1,0.4c0.5,0,0.9-0.2,1.2-0.7c0.3-0.4,0.4-1.2,0.4-2.3v-3.1H19v4.7c0,0.4,0.1,0.7,0.4,0.9c0.2,0.2,0.6,0.3,1,0.3
			h1.5v-2.8c0-0.8,0-1.4-0.1-2c-0.1-0.6-0.1-1.2-0.2-1.7l1.4-0.3c0.1,0.5,0.1,1,0.2,1.7c0,0.6,0.1,1.3,0.1,2v3h1.8v1.2h-4.8
			c-0.6,0-1.1-0.1-1.4-0.3c-0.3-0.2-0.6-0.5-0.8-1c-0.2,0.4-0.5,0.8-0.9,1C16.8,36.1,16.3,36.3,15.6,36.3z"/>
		<path class="st0" d="M24.6,34.9h5.8v-1.8c0-1.1-0.3-1.8-0.8-2.3c-0.5-0.4-1.4-0.7-2.5-0.7c-0.3,0-0.6,0-0.8,0c-0.2,0-0.5,0-0.6,0
			l0.2-1.2c0.2,0,0.4,0,0.6,0c0.2,0,0.5,0,0.8,0c0.6,0,1.1,0.1,1.7,0.2c0.5,0.1,1,0.3,1.4,0.6c0.4,0.3,0.8,0.7,1,1.2
			c0.3,0.5,0.4,1.1,0.4,1.9v2.1h1.8v1.2h-8.9V34.9z"/>
		<path class="st0" d="M37,35.7c-0.5-0.3-0.9-0.6-1.1-1.1c-0.1,0.4-0.4,0.8-0.8,1.1c-0.4,0.3-0.9,0.4-1.5,0.4h-0.3v-1.2h0.5
			c0.2,0,0.4,0,0.6-0.1s0.4-0.2,0.5-0.3c0.1-0.2,0.3-0.4,0.4-0.7c0.1-0.3,0.1-0.6,0.1-1c0-0.7,0.1-1.3,0.3-1.8
			c0.2-0.5,0.4-0.9,0.7-1.3s0.7-0.6,1.1-0.8c0.4-0.2,0.9-0.2,1.4-0.2c0.5,0,0.9,0.1,1.2,0.2c0.4,0.1,0.7,0.4,0.9,0.7
			c0.3,0.3,0.5,0.7,0.6,1.1c0.1,0.5,0.2,1,0.2,1.7v2.5h1.6v1.2H39C38.1,36.1,37.4,36,37,35.7z M40.5,34.9v-2.8c0-0.3,0-0.6-0.1-0.9
			c-0.1-0.3-0.2-0.5-0.3-0.7c-0.2-0.2-0.3-0.4-0.6-0.5c-0.2-0.1-0.5-0.2-0.8-0.2c-0.3,0-0.6,0.1-0.9,0.2s-0.4,0.3-0.6,0.5
			c-0.2,0.2-0.3,0.5-0.3,0.8c-0.1,0.3-0.1,0.6-0.1,1c0,0.9,0.2,1.6,0.6,2c0.4,0.4,1,0.6,1.9,0.6H40.5z"/>
		<path class="st0" d="M43.2,34.9h2.1V24.7h1.4v11.4h-3.5V34.9z"/>
		<path class="st0" d="M51.2,36.1h-1.4V25.8c-0.2,0-0.4-0.1-0.6-0.1c-0.2,0-0.5,0-0.7-0.1v-0.8c0.4-0.1,0.8-0.1,1.3-0.1
			c0.5,0,1,0,1.4,0V36.1z"/>
		<path class="st0" d="M56.2,34.9h5c0-1.4-0.3-2.5-1-3.3c-0.7-0.8-1.7-1.4-3.1-1.8l0.1-1.5c0.8,0.2,1.5,0.4,2.2,0.8
			c0.7,0.4,1.2,0.8,1.7,1.3c0.5,0.5,0.8,1.1,1.1,1.8c0.3,0.7,0.4,1.4,0.4,2.3v0.4h1.8v1.2h-8.1V34.9z"/>
		<path class="st0" d="M63.7,34.9h2.2v-6h1.4v6h1.8v1.2h-5.4V34.9z M66.6,39.3c-0.3,0-0.5-0.1-0.6-0.3c-0.2-0.2-0.3-0.4-0.3-0.7
			c0-0.2,0.1-0.5,0.3-0.6c0.2-0.2,0.4-0.3,0.6-0.3c0.3,0,0.5,0.1,0.6,0.3c0.2,0.2,0.2,0.4,0.2,0.6c0,0.3-0.1,0.5-0.2,0.7
			C67,39.2,66.8,39.3,66.6,39.3z"/>
		<path class="st0" d="M68.8,34.9h2.5c-0.3-0.3-0.5-0.7-0.7-1.1c-0.2-0.4-0.2-0.9-0.2-1.4c0-0.5,0.1-1,0.2-1.4
			c0.2-0.4,0.4-0.8,0.7-1.2c0.3-0.3,0.7-0.6,1.2-0.8c0.5-0.2,1-0.3,1.7-0.3c0.3,0,0.6,0,0.9,0.1c0.3,0,0.6,0.1,0.8,0.2l-0.2,1.3
			c-0.2-0.1-0.5-0.2-0.8-0.2c-0.3-0.1-0.6-0.1-0.9-0.1c-0.8,0-1.4,0.2-1.7,0.7c-0.4,0.4-0.6,1-0.6,1.7c0,0.8,0.3,1.5,0.8,1.9
			c0.5,0.5,1.3,0.7,2.3,0.7h1.8v1.2h-7.9V34.9z"/>
		<path class="st0" d="M7,68.4c-1.2,0-2.3-0.2-3.1-0.6c-0.9-0.4-1.5-1-2.1-1.7s-0.9-1.6-1.1-2.6c-0.2-1-0.4-2.1-0.4-3.3
			c0-0.3,0-0.7,0.1-1.1c0-0.4,0.1-0.9,0.2-1.3c0.1-0.4,0.2-0.9,0.3-1.3c0.1-0.4,0.2-0.8,0.3-1.2l2.7-0.5c-0.3,1-0.5,1.9-0.7,2.8
			c-0.1,0.9-0.2,1.7-0.2,2.5C2.9,61,3,62,3.2,62.8c0.2,0.8,0.5,1.5,0.9,2c0.4,0.5,0.8,0.9,1.4,1.1c0.5,0.2,1.1,0.4,1.7,0.4
			c0.8,0,1.5-0.2,2.1-0.5c0.6-0.3,1-0.8,1.3-1.4c0.3-0.6,0.6-1.3,0.7-2.2c0.2-0.9,0.2-1.8,0.2-2.9V49h2.5v10c0,3.2-0.6,5.5-1.7,7.1
			C11.3,67.6,9.5,68.4,7,68.4z M7.5,51.3c-0.5,0-0.8-0.2-1.1-0.5c-0.3-0.3-0.5-0.7-0.5-1.2c0-0.4,0.2-0.8,0.5-1.1
			C6.6,48.2,7,48,7.5,48c0.5,0,0.8,0.2,1.1,0.5C8.8,48.8,9,49.2,9,49.6c0,0.5-0.1,0.8-0.4,1.2C8.3,51.1,7.9,51.3,7.5,51.3z"/>
		<path class="st0" d="M21.4,59.4h3.1v2.2h-5.6V43.5c-0.3-0.1-0.7-0.1-1.1-0.2c-0.4,0-0.8-0.1-1.2-0.1v-1.4c0.7-0.1,1.5-0.2,2.3-0.2
			c0.9,0,1.7,0,2.5,0V59.4z"/>
		<path class="st0" d="M24,59.4h3.9V41.6h2.5v9.1c0,0.7,0,1.3-0.1,2c0,0.6-0.1,1.2-0.1,1.6c0,0.5-0.1,0.9-0.1,1.2
			c0,0.3-0.1,0.5-0.1,0.6c0.4-0.9,0.9-1.8,1.5-2.6c0.6-0.9,1.3-1.7,2-2.4c0.7-0.7,1.5-1.3,2.4-1.8c0.9-0.4,1.7-0.7,2.6-0.7
			c1.6,0,2.9,0.5,3.8,1.6c0.9,1,1.4,2.6,1.4,4.7v4.6h3.1v2.2H24V59.4z M41,59.4v-4.2c0-0.6-0.1-1.2-0.2-1.8c-0.1-0.5-0.3-1-0.5-1.4
			c-0.2-0.4-0.6-0.7-1-0.9c-0.4-0.2-0.9-0.3-1.4-0.3c-0.6,0-1.3,0.2-2,0.6c-0.7,0.4-1.4,1-2.1,1.7c-0.7,0.8-1.4,1.7-2,2.7
			c-0.6,1.1-1.2,2.2-1.6,3.6H41z"/>
		<path class="st0" d="M46.2,59.4h4.3c-0.4-0.5-0.8-1.1-1.1-1.8c-0.3-0.7-0.4-1.6-0.4-2.6c0-0.9,0.1-1.7,0.4-2.4
			c0.3-0.8,0.7-1.5,1.2-2c0.5-0.6,1.2-1,2-1.4c0.8-0.3,1.6-0.5,2.6-0.5c0.9,0,1.7,0.2,2.4,0.5c0.7,0.3,1.3,0.7,1.8,1.3
			c0.5,0.5,0.9,1.2,1.1,1.9c0.3,0.8,0.4,1.6,0.4,2.5c0,1.2-0.2,2.1-0.5,2.9c-0.4,0.7-0.7,1.3-1.1,1.7H63v2.2H46.2V59.4z M52.7,46
			c-0.5,0-0.9-0.2-1.2-0.5c-0.3-0.3-0.5-0.7-0.5-1.2c0-0.5,0.2-0.9,0.5-1.2c0.3-0.3,0.7-0.5,1.2-0.5c0.5,0,0.9,0.2,1.2,0.5
			c0.3,0.3,0.5,0.7,0.5,1.2c0,0.5-0.2,0.9-0.5,1.2C53.5,45.8,53.1,46,52.7,46z M54.9,59.5c1.2,0,2.1-0.4,2.7-1.2
			c0.6-0.8,0.9-1.9,0.9-3.3c0-0.6-0.1-1.2-0.2-1.7c-0.1-0.5-0.4-1-0.7-1.4c-0.3-0.4-0.6-0.7-1.1-0.9c-0.4-0.2-0.9-0.3-1.5-0.3
			c-0.6,0-1.1,0.1-1.5,0.4c-0.4,0.3-0.8,0.6-1,1c-0.3,0.4-0.5,0.9-0.6,1.4c-0.1,0.5-0.2,1-0.2,1.6c0,0.5,0.1,1,0.2,1.6
			c0.1,0.5,0.3,1,0.6,1.4c0.3,0.4,0.6,0.8,1,1.1C53.8,59.3,54.3,59.5,54.9,59.5z M56.8,46c-0.5,0-0.9-0.2-1.2-0.5
			c-0.3-0.3-0.5-0.8-0.5-1.2c0-0.5,0.2-0.9,0.5-1.2c0.3-0.3,0.7-0.5,1.2-0.5c0.5,0,0.9,0.2,1.2,0.5c0.3,0.3,0.5,0.7,0.5,1.2
			c0,0.5-0.2,0.9-0.5,1.2C57.7,45.8,57.3,46,56.8,46z"/>
		<path class="st0" d="M62.5,59.4h3.7V41.6h2.5v20h-6.2V59.4z"/>
		<path class="st0" d="M76.5,61.6h-2.5V43.5c-0.3-0.1-0.7-0.1-1.1-0.2c-0.4,0-0.8-0.1-1.2-0.1v-1.4c0.7-0.1,1.5-0.2,2.3-0.2
			c0.9,0,1.7,0,2.5,0V61.6z"/>
	</g>
	<g>
		<path class="st0" d="M6.1,72.6h1.3l3.8,9.1H9.4l-1-2.3H5.1l-1,2.3H2.3L6.1,72.6z M5.7,77.8h2.1l-1-2.8h0L5.7,77.8z"/>
		<path class="st0" d="M15.5,72.6h2.3l2.4,6.9h0l2.4-6.9H25v9.1h-1.7v-6.8h0L21,81.7h-1.4l-2.3-6.8h0v6.8h-1.7V72.6z"/>
		<path class="st0" d="M39.3,81.9h-0.2c-1.1,0-1.7-0.5-2.2-0.7c-0.7,0.5-1.7,0.7-2.6,0.7c-2.6,0-4.7-2.1-4.7-4.7
			c0-2.7,2.2-4.7,4.7-4.7c2.5,0,4.7,2,4.7,4.7c0,1.6-0.6,2.4-1,2.9c0.3,0.2,0.8,0.3,0.9,0.3h0.3V81.9z M36.8,79
			c0.2-0.3,0.6-0.8,0.6-1.9c0-1.8-1.4-3.2-3.1-3.2c-1.9,0-3,1.6-3.1,3.1c0,0.2,0,0.2,0,0.3c0.2,0,0.5-0.1,1-0.1h0.2
			C34.9,77.2,36.7,79,36.8,79L36.8,79z M32.5,78.8c-0.3,0-0.5,0-0.7,0.1c0.7,1,1.8,1.4,2.5,1.4h0.1c0.6,0,1-0.2,1.2-0.3
			C34.3,79.1,33.4,78.8,32.5,78.8z"/>
		<path class="st0" d="M43.4,72.6h1.3l3.8,9.1h-1.8l-1-2.3h-3.2l-1,2.3h-1.8L43.4,72.6z M43,77.8h2.1L44,75h0L43,77.8z"/>
		<path class="st0" d="M50.3,74.2h-1.7v-1.6h5v1.6H52v7.5h-1.7V74.2z"/>
		<path class="st0" d="M55.5,74.2h-1.7v-1.6h5v1.6h-1.7v7.5h-1.7V74.2z"/>
		<path class="st0" d="M62.7,72.6H64l3.8,9.1H66l-1-2.3h-3.2l-1,2.3H59L62.7,72.6z M62.3,77.8h2.1l-1-2.8h0L62.3,77.8z"/>
		<path class="st0" d="M68.8,72.6h1.9l3.7,6.6h0v-6.6h1.7v9.1h-1.9l-3.8-6.6h0v6.6h-1.7V72.6z"/>
		<path class="st0" d="M3,87.1h4.4v0.8H3.9V91h3.4v0.8H3.9v3.9H3V87.1z"/>
		<path class="st0" d="M12.9,86.9c2.4,0,4.6,1.9,4.6,4.5c0,2.5-2.2,4.5-4.6,4.5c-2.5,0-4.6-2-4.6-4.4C8.4,88.7,10.6,86.9,12.9,86.9z
			 M12.9,95.1c2,0,3.7-1.6,3.7-3.7c0-2-1.7-3.7-3.7-3.7c-2,0-3.7,1.6-3.7,3.7C9.2,93.4,10.9,95.1,12.9,95.1z"/>
		<path class="st0" d="M19.7,87.1v5.4c0,0.6,0.1,1.2,0.3,1.6c0.5,1,1.4,1.1,1.8,1.1c0.4,0,1.3-0.1,1.8-1.1c0.2-0.4,0.3-0.9,0.3-1.6
			v-5.4h0.9v5.4c0,0.7-0.1,1.3-0.3,1.8c-0.6,1.3-1.8,1.6-2.6,1.6c-0.8,0-2-0.3-2.6-1.6c-0.2-0.5-0.3-1.1-0.3-1.8v-5.4H19.7z"/>
		<path class="st0" d="M26.5,87.1h1.2l4.8,7.2h0v-7.2h0.9v8.6h-0.9l-5.1-7.6h0v7.6h-0.9V87.1z"/>
		<path class="st0" d="M35.2,87.1h2.5c1.1,0,2.1,0.3,2.8,0.7c1.5,0.9,2,2.6,2,3.6c0,0.8-0.3,2.5-2,3.6c-0.7,0.5-1.8,0.7-2.8,0.7
			h-2.5V87.1z M36,94.9h1.2c0.8,0,2,0,3-0.7c0.5-0.4,1.4-1.3,1.4-2.8c0-1.1-0.6-2.2-1.5-2.9c-0.8-0.5-1.6-0.7-2.8-0.7H36V94.9z"/>
		<path class="st0" d="M46.8,87.1h1l3.7,8.6h-0.9l-1.2-2.9h-4L44,95.7h-0.9L46.8,87.1z M45.6,92H49l-1.7-4L45.6,92z"/>
		<path class="st0" d="M52.7,87.8h-2v-0.8h4.8v0.8h-2v7.9h-0.9V87.8z"/>
		<path class="st0" d="M56.5,87.1h0.9v8.6h-0.9V87.1z"/>
		<path class="st0" d="M63.3,86.9c2.4,0,4.6,1.9,4.6,4.5c0,2.5-2.2,4.5-4.6,4.5c-2.5,0-4.6-2-4.6-4.4C58.8,88.7,61,86.9,63.3,86.9z
			 M63.3,95.1c2,0,3.7-1.6,3.7-3.7c0-2-1.7-3.7-3.7-3.7c-2,0-3.7,1.6-3.7,3.7C59.6,93.4,61.3,95.1,63.3,95.1z"/>
		<path class="st0" d="M69.3,87.1h1.2l4.8,7.2h0v-7.2h0.9v8.6h-0.9l-5.1-7.6h0v7.6h-0.9V87.1z"/>
	</g>
</g>
<g>
	<path class="st1" d="M140.1,89.4c-4.3,3-9.4,4.9-14.8,6h27.1c2.6,0,4.7-2.1,4.7-4.7V63.2C155.6,74.9,150.2,82.7,140.1,89.4z"/>
	<path class="st1" d="M85.8,80.6v10.1c0,2.6,2.1,4.7,4.7,4.7h16.5C97.3,93.5,89,88.5,85.8,80.6z"/>
	<path class="st1" d="M117.6,31.5c0,0-1.2-6.2-4.8-6.2c-3.6,0-8.7,6-8.7,6s3.9,1.1,7.2,1.1C114.6,32.4,117.6,31.5,117.6,31.5z"/>
	<path class="st1" d="M99.5,52.2c2.2-2.2,6.5-6.9,7.6-9.6c0.3-0.8-8-1.6-9.4-4.2c-1.3-9.4,8.5-21.6,15.6-22.7
		c9.6-1.5,7.8,8.7,6.9,12c-0.3,1.3-0.8,3.8-0.3,3.3c2.7-2.7,13.2-10.3,13.2-10.3l-4.9,8.3l-21.4,21.9c0,0,12.2-2.7,13.4-3.3
		c6-3.4,10.7-9.2,13.8-11.4c2.1-1.5-0.9-8-0.9-10.7c4,1.3,8-0.9,9.6-8.5c4,24.8-16.7,32.1-23.6,48.8c-0.5,1.2,3.9,0.2,5.6-0.9
		c8.5-5.6,11.6-17.6,14.3-25.7c0,24.5-13.5,32.7-22.7,38.8c-0.7,0.5,0,11.2,1.3,11.2c12.9,0,18.7-8.9,18.1-29.7
		c4.9,8,1.8,19.8,0.4,25.2c0,1.3,4.3-1.5,6.2-2.9c5.4-3.8,11.2-9.4,11.2-17.4c0-2.7-0.9-7.1-1.8-5.8c-3.8,5.7-12.7,6.9-12.7,0.9
		c0-4.7,4-14.3,8.9-14.3c5,0,8.1,5.3,9.2,9V40l-0.9,1.5l-5.6-3.8l-3.8,3.6l-4.2-3.3l2.9-4.5l4.9,3.6l3.3-3.6l3.4,2.5V6.2
		c0-2.6-2.1-4.7-4.7-4.7H90.5c-2.6,0-4.7,2.1-4.7,4.7v58.4C88.7,59.6,95.5,56.1,99.5,52.2z"/>
	<path class="st1" d="M109.1,70.3c1.4,0,2.4-4.9,4.5-9.4c2.5-5.6,6-10.9,6-10.9s-14.9,5.1-17.6,7.6c-2.7,2.5-3.6,4.2-3.6,6.9
		C98.4,67.1,99.5,70.3,109.1,70.3z"/>
	<path class="st1" d="M110.4,78.1c-4,0-9.9,0.8-12.7-2.7c-4-4.9-3.1-8.7-3.1-14.5c0-1.3-6.7,5.3-6.9,7.8c0,0-1,6.1,1.8,10.7
		c2.5,4,11.4,8,15.2,8.7c3.6,0.6,9.8,0.5,9.8,0.5C111.7,84.5,111.5,78.1,110.4,78.1z"/>
</g>
</svg>
